<mxfile host="app.diagrams.net" modified="2023-09-11T16:39:55.330Z" agent="Mozilla/5.0 (Windows NT 10.0; Win64; x64) AppleWebKit/537.36 (KHTML, like Gecko) Chrome/116.0.0.0 Safari/537.36 Edg/116.0.1938.76" version="21.7.1" etag="bRdsx4itNCdAvWWY44mc" type="github">
  <diagram name="Seite-1" id="iv_4Ps4gygiS_nUCAITV">
    <mxGraphModel>
      <root>
        <mxCell id="0" />
        <mxCell id="1" parent="0" />
      </root>
    </mxGraphModel>
  </diagram>
</mxfile>
